<?xml version="1.0" encoding="UTF-8" standalone="no"?>
<!DOCTYPE svg PUBLIC "-//W3C//DTD SVG 1.1//EN" "http://www.w3.org/Graphics/SVG/1.1/DTD/svg11.dtd">
<svg width="100%" height="100%" viewBox="0 0 256 256" version="1.1" xmlns="http://www.w3.org/2000/svg" xmlns:xlink="http://www.w3.org/1999/xlink" xml:space="preserve" xmlns:serif="http://www.serif.com/" style="fill-rule:evenodd;clip-rule:evenodd;stroke-linejoin:round;stroke-miterlimit:2;">
    <g transform="matrix(0.951673,0,0,0.951673,128,122.766)">
        <g transform="matrix(1,0,0,1,-134.5,-129)">
            <g transform="matrix(1,0,0,1,-457,-708)">
                <g>
                    <g transform="matrix(1,0,0,1,152.87,-10.1913)">
                        <path d="M460.472,873.749L570.679,873.749C570.385,875.596 570.053,877.429 569.684,879.249C569.309,881.097 568.896,882.93 568.447,884.749L461.529,884.749C461.334,883.134 461.134,881.352 460.945,879.457C460.531,875.291 460.49,874.355 460.476,873.91C460.475,873.859 460.473,873.806 460.472,873.749Z" style="fill:rgb(26,80,111);"/>
                    </g>
                    <g transform="matrix(1,0,0,1,152.87,-10.1913)">
                        <path d="M308.384,884.749C307.935,882.93 307.522,881.097 307.147,879.249C306.778,877.429 306.446,875.596 306.152,873.749L417.431,873.749C416.829,876.181 415.947,879.91 414.953,884.749L308.384,884.749Z" style="fill:rgb(26,80,111);"/>
                    </g>
                    <g transform="matrix(1,0,0,1,152.87,-10.1913)">
                        <path d="M450.452,884.749C450.946,889.012 451.434,892.348 451.676,893.973C451.698,894.123 452.823,900.079 454.499,906.973C454.523,907.071 454.74,908.177 455.904,912.054C455.988,912.332 456.941,918.828 456.054,922.901C455.932,923.461 454.867,926.321 452.441,929.089C450.015,931.856 447.292,933.224 446.78,933.482C445.688,934.03 444.539,934.48 443.36,934.801L439.638,935.428C438.383,935.384 437.118,935.463 435.874,935.294C434.663,935.13 433.465,934.835 432.31,934.434C431.769,934.246 428.89,933.247 426.122,930.821C423.355,928.395 421.987,925.672 421.729,925.16C421.181,924.068 420.731,922.919 420.41,921.74C419.848,919.68 419.539,919.684 419.842,917.571C420.329,914.173 421.097,910.532 421.459,908.468C422.98,899.791 424.367,893.979 424.489,893.316C425.079,890.122 425.656,887.255 426.19,884.749C427.376,879.177 428.348,875.389 428.771,873.749C428.889,873.293 428.964,873.003 428.989,872.888C430.598,865.571 431.394,863.077 431.916,860.903C433.549,854.105 434.689,850.827 435.129,849.309C437.764,840.23 440.764,833.362 443.115,828.199C446.918,819.85 451.471,811.779 457.571,802.804C473.376,779.553 491.784,764.275 501.694,756.62C507.322,752.272 512.879,748.422 518.256,745.015C539.152,731.774 557.32,725.238 566.326,722.28C567.058,722.04 567.63,722.314 567.732,722.362C568.42,722.692 568.633,723.296 568.67,723.402C568.926,724.128 568.645,724.714 568.596,724.816C568.495,725.028 568.351,725.224 568.176,725.38C567.996,725.54 567.766,725.635 567.552,725.744C567.143,725.952 556.313,729.754 542.781,737.157C535.606,741.082 529.163,745.158 523.486,749.111C508.422,759.602 498.751,769.234 495.102,772.925C479.479,788.731 470.363,803.154 465.56,811.652C463.417,815.443 461.414,819.661 461.078,820.369C460.53,821.521 457.42,828.068 455.026,835.116C453.687,839.055 452.625,843.219 452.443,843.931C451.227,848.697 450.49,852.81 450.346,853.91C449.633,859.343 449.417,864.297 449.412,864.561C449.343,868.551 449.419,872.019 449.467,873.749C449.472,873.919 449.477,874.082 449.481,874.238C449.496,874.744 449.528,875.809 449.999,880.546C450.146,882.02 450.299,883.429 450.452,884.749Z" style="fill:rgb(26,80,111);"/>
                    </g>
                    <g transform="matrix(1,0,0,1,152.87,-10.1913)">
                        <path d="M306.152,873.749C305.05,866.839 304.478,859.753 304.478,852.535C304.478,778.612 364.493,718.597 438.416,718.597C464.045,718.597 488.002,725.811 508.366,738.318C503.979,741.227 499.496,744.418 494.969,747.915C484.522,755.985 465.135,772.109 448.474,796.62C441.984,806.168 437.15,814.758 433.105,823.64C430.588,829.167 427.386,836.524 424.565,846.243C424.106,847.826 422.923,851.245 421.22,858.335C420.689,860.545 419.882,863.084 418.246,870.526C418.189,870.781 417.893,871.884 417.431,873.749L306.152,873.749ZM460.472,873.749C460.428,872.24 460.341,868.776 460.41,864.75C460.414,864.518 460.622,860.142 461.252,855.342C461.378,854.383 462.042,850.804 463.102,846.651C463.266,846.005 464.227,842.228 465.441,838.655C467.644,832.17 470.51,826.149 471.014,825.089C471.323,824.437 473.164,820.554 475.136,817.064C479.653,809.074 488.236,795.52 502.925,780.658C506.547,776.994 516.44,767.15 531.913,756.667C556.856,780.999 572.353,814.971 572.353,852.535C572.353,859.753 571.781,866.839 570.679,873.749L460.472,873.749Z" style="fill:rgb(119,179,200);"/>
                    </g>
                    <g transform="matrix(0.508184,0,0,0.508184,152.56,538.217)">
                        <circle cx="657.593" cy="700.51" r="12.199" style="fill:rgb(26,80,111);"/>
                    </g>
                    <g transform="matrix(0.508184,0,0,0.508184,182.1,538.217)">
                        <circle cx="657.593" cy="700.51" r="12.199" style="fill:rgb(26,80,111);"/>
                    </g>
                    <g transform="matrix(0.508184,0,0,0.508184,171.61,565.372)">
                        <circle cx="657.593" cy="700.51" r="12.199" style="fill:rgb(26,80,111);"/>
                    </g>
                    <g transform="matrix(0.508184,0,0,0.508184,257.107,602.876)">
                        <circle cx="657.593" cy="700.51" r="12.199" style="fill:rgb(26,80,111);"/>
                    </g>
                    <g transform="matrix(0.508184,0,0,0.508184,199.733,565.372)">
                        <circle cx="657.593" cy="700.51" r="12.199" style="fill:rgb(26,80,111);"/>
                    </g>
                    <g transform="matrix(0.508184,0,0,0.508184,205.733,592.688)">
                        <circle cx="657.593" cy="700.51" r="12.199" style="fill:rgb(26,80,111);"/>
                    </g>
                    <g transform="matrix(0.508184,0,0,0.508184,235.011,581.289)">
                        <circle cx="657.593" cy="700.51" r="12.199" style="fill:rgb(26,80,111);"/>
                    </g>
                    <g transform="matrix(0.508184,0,0,0.508184,211.932,538.217)">
                        <circle cx="657.593" cy="700.51" r="12.199" style="fill:rgb(26,80,111);"/>
                    </g>
                    <g transform="matrix(-0.508278,0,0,0.508184,1030.09,538.217)">
                        <circle cx="657.593" cy="700.51" r="12.199" style="fill:rgb(26,80,111);"/>
                    </g>
                    <g transform="matrix(-0.508278,0,0,0.508184,1000.55,538.217)">
                        <circle cx="657.593" cy="700.51" r="12.199" style="fill:rgb(26,80,111);"/>
                    </g>
                    <g transform="matrix(-0.508278,0,0,0.508184,1011.04,565.372)">
                        <circle cx="657.593" cy="700.51" r="12.199" style="fill:rgb(26,80,111);"/>
                    </g>
                    <g transform="matrix(-0.508278,0,0,0.508184,982.912,565.372)">
                        <circle cx="657.593" cy="700.51" r="12.199" style="fill:rgb(26,80,111);"/>
                    </g>
                    <g transform="matrix(-0.508278,0,0,0.508184,976.91,592.688)">
                        <circle cx="657.593" cy="700.51" r="12.199" style="fill:rgb(26,80,111);"/>
                    </g>
                    <g transform="matrix(-0.508278,0,0,0.508184,947.627,581.289)">
                        <circle cx="657.593" cy="700.51" r="12.199" style="fill:rgb(26,80,111);"/>
                    </g>
                    <g transform="matrix(-0.508278,0,0,0.508184,970.71,538.217)">
                        <circle cx="657.593" cy="700.51" r="12.199" style="fill:rgb(26,80,111);"/>
                    </g>
                </g>
            </g>
        </g>
    </g>
</svg>
